<svg xmlns="http://www.w3.org/2000/svg" viewBox="0 0 120 150"><rect x="34" y="10" width="52" height="100" rx="6" fill="#20292C"/><circle cx="60" cy="28" r="10" fill="none" stroke="#3BB8AF" stroke-width="2"/><text x="60" y="32" font-family="Figtree,Arial" font-size="9" fill="#fff" text-anchor="middle">MENU</text><g transform="translate(41,42) scale(0.6)"><rect width="60" height="60" rx="4" fill="#fff"/><g fill="#1E2A2E"><rect x="6" y="6" width="16" height="16" rx="2"/><rect x="10" y="10" width="8" height="8" fill="#fff"/><rect x="38" y="6" width="16" height="16" rx="2"/><rect x="42" y="10" width="8" height="8" fill="#fff"/><rect x="6" y="38" width="16" height="16" rx="2"/><rect x="10" y="42" width="8" height="8" fill="#fff"/><rect x="28" y="8" width="4" height="4"/><rect x="28" y="16" width="4" height="4"/><rect x="28" y="28" width="4" height="4"/><rect x="36" y="28" width="4" height="4"/><rect x="44" y="28" width="4" height="4"/><rect x="52" y="28" width="4" height="4"/><rect x="28" y="36" width="4" height="4"/><rect x="28" y="44" width="4" height="4"/><rect x="28" y="52" width="4" height="4"/><rect x="36" y="44" width="4" height="4"/><rect x="44" y="52" width="4" height="4"/><rect x="52" y="44" width="4" height="4"/><rect x="44" y="36" width="4" height="4"/><rect x="52" y="36" width="4" height="4"/><rect x="36" y="52" width="4" height="4"/><rect x="16" y="28" width="4" height="4"/><rect x="8" y="28" width="4" height="4"/></g></g><rect x="38" y="112" width="44" height="10" rx="3" fill="#7A5230"/><rect x="30" y="122" width="60" height="8" rx="3" fill="#5F4025"/></svg>